<svg id="Expnaded" xmlns="http://www.w3.org/2000/svg" viewBox="0 0 96 96"><path d="M38.13,84.19H38L2.91,81a1,1,0,0,1-.71-.39A1,1,0,0,1,2,79.78L13.48,20.5a1,1,0,0,1,1.17-.79,1,1,0,0,1,.79,1.17L4.19,79.07l33.24,3.05,9.72-29.94a1,1,0,0,1,1-.69h0a1,1,0,0,1,.95.69l9.71,29.94,33.05-3.05L80.57,20.88a1,1,0,0,1,2-.38L94,79.78a1,1,0,0,1-.18.79,1,1,0,0,1-.71.39L58.15,84.18a1,1,0,0,1-1-.68l-9-27.77-9,27.77A1,1,0,0,1,38.13,84.19Z"/><path d="M48,24a248.41,248.41,0,0,1-33.69-2.3,1,1,0,0,1-.85-1.12l1-7.87a1,1,0,0,1,1-.88c11.73.63,21.9.9,33,.89,10.73,0,20.61-.28,32-.89a1,1,0,0,1,1,.88l1,7.87a1,1,0,0,1-.86,1.12A248.42,248.42,0,0,1,48.1,24ZM15.58,19.83A246.24,246.24,0,0,0,48,22h.09a244.85,244.85,0,0,0,32.33-2.15l-.76-6c-11.06.57-20.73.83-31.2.84-10.81,0-20.76-.25-32.14-.84Z"/><path d="M38.13,84.19a1,1,0,0,1-.3,0,1,1,0,0,1-.65-1.26l10-30.7a1,1,0,0,1,1-.69h0a1,1,0,0,1,.95.69l10,30.7a1,1,0,0,1-1.9.62l-9-27.77-9,27.77A1,1,0,0,1,38.13,84.19Z"/><path d="M41.22,74.68h-.09L4.75,71.46a1,1,0,0,1-.91-1.08,1,1,0,0,1,1.08-.91l36.39,3.22a1,1,0,0,1,.91,1.08A1,1,0,0,1,41.22,74.68Z"/><path d="M55,74.68a1,1,0,0,1-.08-2l36.19-3.22a1,1,0,0,1,1.08.91,1,1,0,0,1-.91,1.08L55.06,74.68Z"/><path d="M14.46,31.5a11.07,11.07,0,0,1-2.06-.27,1,1,0,1,1,.42-2,8.65,8.65,0,0,0,1.64.23,7.55,7.55,0,0,0,7.85-7.76,1,1,0,0,1,2,0A9.59,9.59,0,0,1,14.46,31.5Z"/><path d="M81.55,31.5a9.47,9.47,0,0,1-9.82-9.76,1,1,0,1,1,2,0,7.54,7.54,0,0,0,7.82,7.76,8.9,8.9,0,0,0,1.66-.13,1,1,0,1,1,.41,1.95A9.74,9.74,0,0,1,81.55,31.5Z"/><path d="M51.2,21.46A2.94,2.94,0,1,1,54,18.52,2.88,2.88,0,0,1,51.2,21.46Zm0-3.88a1,1,0,1,0,.8.94A.89.89,0,0,0,51.2,17.58Z"/><path d="M44.8,21.46a2.94,2.94,0,1,1,2.81-2.94A2.88,2.88,0,0,1,44.8,21.46Zm0-3.88a1,1,0,1,0,.81.94A.89.89,0,0,0,44.8,17.58Z"/><path d="M41,36.18H40.9A1,1,0,0,1,40,35.06c1.33-11.42,7.59-13,7.86-13A1,1,0,1,1,48.33,24C48.1,24,43.15,25.41,42,35.29A1,1,0,0,1,41,36.18Z"/><path d="M55.19,36.18a1,1,0,0,1-1-.89C53.05,25.38,48.08,24,47.87,24A1,1,0,0,1,48.33,22c.26.06,6.53,1.63,7.86,13.05a1,1,0,0,1-.88,1.11Z"/></svg>