<svg width="107" height="120" viewBox="0 0 107 120" fill="none" xmlns="http://www.w3.org/2000/svg">
<path d="M106.404 29.3612C106.392 29.1672 106.306 28.9821 106.16 28.8351C106.013 28.688 105.813 28.5875 105.593 28.5493C102.843 28.0909 100.045 27.8849 97.2449 27.9349C97.0495 27.9427 96.8573 27.8892 96.7038 27.7842C96.5503 27.6793 96.4458 27.53 96.4094 27.3638C96.362 27.2029 96.3845 27.0326 96.4727 26.8851C96.5609 26.7376 96.7086 26.6233 96.8878 26.5637C99.3426 25.6252 101.916 24.9379 104.555 24.5157C104.692 24.4946 104.822 24.4493 104.938 24.3826C105.054 24.316 105.153 24.2294 105.228 24.1283C105.303 24.0271 105.353 23.9137 105.376 23.795C105.398 23.6763 105.392 23.5549 105.357 23.4384C104.37 20.1116 102.753 16.949 100.571 14.0788C100.553 14.0546 100.533 14.0312 100.512 14.0087L100.038 13.5024C99.92 13.3761 99.7636 13.2808 99.5864 13.2271C99.4091 13.1734 99.2181 13.1635 99.0347 13.1985C95.2181 13.9649 91.5365 15.1673 88.087 16.7739C87.8562 16.8892 87.5846 16.9277 87.3232 16.882C87.0619 16.8364 86.8289 16.7097 86.668 16.5259C86.4962 16.3553 86.4024 16.1364 86.4042 15.9102C86.406 15.6841 86.5033 15.4662 86.6777 15.2977C88.9234 12.9066 91.5358 10.7913 94.4426 9.01039C94.5566 8.94186 94.6532 8.85374 94.7261 8.75153C94.799 8.64931 94.8468 8.5352 94.8664 8.41631C94.8861 8.29742 94.8771 8.17631 94.8402 8.06053C94.8033 7.94476 94.7391 7.83681 94.6518 7.74342L94.0236 7.07155C92.2798 5.1447 90.1134 3.53422 87.6485 2.33237C85.1836 1.13051 82.4687 0.360898 79.6592 0.0676086C78.2463 -0.0905417 76.8103 0.0296224 75.4588 0.419108C74.1072 0.808593 72.875 1.45731 71.8545 2.31672C70.8339 3.17612 70.0514 4.22395 69.5655 5.38178C69.0796 6.53961 68.9029 7.77747 69.0486 9.0027L69.3513 11.9086C69.3903 12.2951 69.3397 12.6845 69.2023 13.0539L93.3275 33.4664C93.6149 33.7095 93.7788 34.0414 93.7831 34.389C93.7875 34.7366 93.6319 35.0714 93.3507 35.3199C93.0695 35.5683 92.6856 35.71 92.2836 35.7138C91.8815 35.7176 91.4942 35.5831 91.2068 35.34L69.9022 17.3142L67.738 15.4831L67.0815 14.9277C66.6573 15.0546 66.2079 15.1066 65.76 15.0807L62.393 14.8817C60.973 14.7822 59.5453 14.9616 58.2169 15.4066C56.8884 15.8515 55.6936 16.5505 54.7217 17.4511C53.7499 18.3517 53.0263 19.4307 52.605 20.6073C52.1837 21.7839 52.0757 23.0277 52.2891 24.2455C52.6879 26.6656 53.6349 28.9939 55.0759 31.0971C56.5168 33.2004 58.4234 35.0374 60.6865 36.5028L61.4886 37.0391C61.5955 37.1102 61.7178 37.162 61.8482 37.1917C60.6452 48.0448 60.3545 62.0854 60.9791 79.1243H51.6243C52.001 72.5508 51.5396 66.4835 50.2284 60.9814C49.5995 58.3237 48.7471 55.7091 47.6781 53.1587C50.907 49.6545 52.5607 45.2587 52.3337 40.7828C52.2839 39.5519 51.9126 38.3467 51.2478 37.2573C50.583 36.168 49.6418 35.2227 48.4947 34.4923C47.3475 33.7619 46.0242 33.2653 44.6236 33.0396C43.2231 32.8139 41.7816 32.8649 40.4071 33.189L37.1404 33.9208C36.7056 34.0173 36.2528 34.0377 35.8087 33.9806L16.4469 57.8865C16.3335 58.0291 16.1885 58.151 16.0204 58.2449C15.8523 58.3389 15.6642 58.4031 15.4672 58.434C15.2702 58.4648 15.0681 58.4615 14.8725 58.4244C14.677 58.3873 14.4918 58.3171 14.3278 58.2178C14.1638 58.1186 14.0242 57.9922 13.917 57.846C13.8098 57.6998 13.7372 57.5367 13.7033 57.3661C13.6694 57.1955 13.6749 57.0208 13.7195 56.852C13.7642 56.6833 13.847 56.5239 13.9633 56.383L33.3251 32.477C33.1114 32.1358 32.9786 31.7612 32.9347 31.375L32.6128 28.4707C32.4949 27.2432 32.0575 26.0547 31.3331 24.994C30.6088 23.9334 29.6164 23.0281 28.4301 22.3459C27.2438 21.6638 25.8945 21.2224 24.483 21.0549C23.0715 20.8874 21.6345 20.9981 20.2795 21.3786C17.5828 22.1134 15.0802 23.3007 12.9149 24.8727C10.7496 26.4447 8.96412 28.3704 7.66073 30.5397L7.17924 31.3112C7.11329 31.4169 7.07325 31.5332 7.06161 31.6529C7.04998 31.7725 7.06701 31.893 7.11163 32.0067C7.15626 32.1205 7.22752 32.225 7.32098 32.3139C7.41443 32.4027 7.52807 32.474 7.6548 32.5232C10.8914 33.8107 13.9098 35.4736 16.6268 37.466C16.8343 37.6039 16.9763 37.8025 17.0262 38.0245C17.0762 38.2466 17.0306 38.4768 16.8981 38.6718C16.779 38.8779 16.577 39.0394 16.33 39.1259C16.0829 39.2124 15.8079 39.2179 15.5565 39.1415C11.8235 38.1119 7.94869 37.5166 4.03402 37.3711C3.84647 37.3669 3.6612 37.4075 3.4986 37.4884C3.33599 37.5693 3.20235 37.6874 3.11235 37.8297L2.75487 38.4029C2.73911 38.4283 2.72455 38.4545 2.71179 38.4811C1.17895 41.6497 0.263367 45.0158 0.00216492 48.443C-0.00693331 48.563 0.0127105 48.6833 0.0598677 48.7964C0.107025 48.9096 0.180681 49.0131 0.276226 49.1005C0.372481 49.187 0.487997 49.2559 0.615827 49.3029C0.743658 49.35 0.881165 49.3742 1.02008 49.3741C3.70415 49.3684 6.37979 49.6341 8.9925 50.1656C9.1814 50.1956 9.351 50.2845 9.46913 50.4154C9.58727 50.5463 9.64571 50.7102 9.63337 50.8759C9.63536 51.0455 9.56527 51.21 9.43638 51.3379C9.30748 51.4659 9.12876 51.5485 8.93408 51.5702C6.17136 51.9673 3.46485 52.6154 0.859554 53.5038C0.651087 53.5764 0.476556 53.707 0.363554 53.875C0.250552 54.043 0.205528 54.2387 0.235598 54.4312C0.391714 55.4313 0.596846 56.3964 0.845371 57.2997L3.666 67.5519C3.88242 68.34 4.42588 69.0319 5.19328 69.4964C5.96067 69.961 6.89861 70.1658 7.82914 70.0722L19.9373 68.8572C21.0036 68.7501 22.1229 68.5867 23.2636 68.3714C23.4832 68.3299 23.6804 68.2264 23.8243 68.0772C23.9681 67.928 24.0504 67.7415 24.058 67.5474C24.1328 65.127 23.9117 62.7064 23.3984 60.3262C23.3553 60.1606 23.384 59.9872 23.479 59.8387C23.574 59.6902 23.7287 59.577 23.9138 59.5206C24.0897 59.454 24.2878 59.4454 24.4705 59.4966C24.6532 59.5478 24.8079 59.6552 24.9051 59.7984C26.3762 61.7393 27.58 63.822 28.4921 66.0044C28.5385 66.1178 28.6114 66.2217 28.7064 66.3096C28.8013 66.3975 28.9162 66.4675 29.0439 66.5153C29.1716 66.563 29.3093 66.5874 29.4484 66.587C29.5875 66.5866 29.7251 66.5614 29.8524 66.513C33.4881 65.1287 36.8336 63.2336 39.7533 60.9045C39.7781 60.8849 39.8017 60.8642 39.8241 60.8425L40.3246 60.3561C40.4494 60.2348 40.5326 60.0858 40.565 59.9259C40.5973 59.7659 40.5775 59.6014 40.5077 59.4506C39.0107 56.3202 37.0383 53.3759 34.6424 50.6955C34.4733 50.5173 34.3853 50.292 34.3948 50.0617C34.4044 49.8314 34.5108 49.612 34.6942 49.4448C34.8609 49.2705 35.0955 49.1548 35.3538 49.1194C35.6122 49.0841 35.8766 49.1315 36.0974 49.2528C39.1923 50.7786 42.0322 52.662 44.5385 54.8511C44.7344 55.019 44.9988 55.1138 45.2747 55.115C47.5952 61.0004 49.25 68.6949 48.6171 79.1246H29.6739C29.4464 79.1245 29.2219 79.1688 29.0169 79.254C28.8119 79.3392 28.6317 79.4632 28.4896 79.6168C28.3476 79.7704 28.2473 79.9497 28.1963 80.1413C28.1453 80.333 28.1449 80.5321 28.195 80.7239L36.9056 114.08C37.3366 115.764 38.4216 117.27 39.98 118.347C41.5385 119.424 43.4765 120.007 45.4717 120H66.359C68.3542 120.007 70.2923 119.424 71.8508 118.347C73.4093 117.27 74.4943 115.764 74.9252 114.08L83.6359 80.7237C83.686 80.5319 83.6855 80.3327 83.6345 80.1411C83.5835 79.9494 83.4833 79.7702 83.3413 79.6166C83.1992 79.463 83.019 79.339 82.814 79.2538C82.609 79.1685 82.3844 79.1243 82.157 79.1243H64.013C63.2355 57.9653 63.9591 43.7315 65.2633 34.1603C66.7272 32.659 68.329 31.2623 70.0528 29.9838C70.244 29.8294 70.4938 29.7407 70.7552 29.7342C71.0167 29.7278 71.2719 29.8041 71.4729 29.9489C71.6888 30.084 71.8402 30.2827 71.8987 30.5076C71.9571 30.7324 71.9185 30.968 71.7902 31.17C70.0065 34.1862 68.6954 37.3943 67.8915 40.7098C67.855 40.8691 67.8706 41.0341 67.9365 41.1861C68.0024 41.3382 68.116 41.4714 68.2646 41.5708L68.8602 41.9691C68.8867 41.9868 68.9141 42.0034 68.9425 42.0186C72.3086 43.8426 76.0009 45.1723 79.8694 45.9537C80.0048 45.9811 80.1454 45.984 80.2822 45.9622C80.419 45.9404 80.5491 45.8945 80.6644 45.8272C80.7798 45.76 80.8778 45.6728 80.9524 45.5713C81.0269 45.4698 81.0765 45.3561 81.0979 45.2372C81.5294 42.947 82.2688 40.7081 83.3011 38.5661C83.3662 38.4099 83.4952 38.2798 83.6638 38.2003C83.8324 38.1209 84.0288 38.0976 84.2159 38.135C84.4099 38.1609 84.5862 38.2475 84.7113 38.3784C84.8364 38.5092 84.9016 38.6752 84.8945 38.8448C84.8972 41.2661 85.1957 43.6804 85.7849 46.0476C85.8338 46.2372 85.9544 46.4073 86.1276 46.531C86.3009 46.6548 86.5168 46.725 86.7414 46.7308C87.1096 46.7403 87.4743 46.7451 87.8355 46.745C88.6177 46.745 89.3808 46.7228 90.1143 46.6786L102.274 45.9441C103.208 45.8873 104.086 45.5364 104.741 44.9577C105.396 44.379 105.783 43.6127 105.829 42.8039L106.416 32.2779C106.468 31.3502 106.464 30.369 106.404 29.3612ZM71.9673 113.502C71.6852 114.605 70.9748 115.591 69.9545 116.296C68.9341 117.001 67.6652 117.383 66.3589 117.378H45.4716C44.1653 117.383 42.8964 117.001 41.8761 116.296C40.8557 115.591 40.1454 114.605 39.8632 113.502L34.3327 92.3234H77.4982L71.9673 113.502Z" fill="#0471B4" fill-opacity="0.27"/>
</svg>
