<svg width="130" height="121" viewBox="0 0 130 121" fill="none" xmlns="http://www.w3.org/2000/svg">
<mask id="path-1-outside-1_1905_1712" maskUnits="userSpaceOnUse" x="-0.500031" y="-0.5" width="130" height="122" fill="black">
<rect fill="white" x="-0.500031" y="-0.5" width="130" height="122"/>
<path d="M128.331 72.3529L120.746 50.0998C120.581 49.6651 120.169 49.3662 119.702 49.3662H116.734L122.917 14.7232L124.181 10.1856C124.264 9.91389 124.209 9.615 124.071 9.37046C123.934 9.12593 123.687 8.93573 123.412 8.85421L91.9442 0.539877C91.3671 0.376851 90.7624 0.730074 90.5975 1.30067L89.3334 5.91974L88.289 8.7727L87.2721 7.76737C87.1347 7.63152 86.9973 7.55 86.8324 7.49566L75.592 4.12645C75.4821 4.09928 75.3722 4.07211 75.2622 4.07211H60.6689C60.5865 4.07211 60.4766 4.07211 60.3941 4.09928L47.5047 7.52283C47.3124 7.57718 47.1475 7.68586 47.01 7.82171L41.7334 13.0114C39.8371 6.43599 32.9664 2.55053 26.2606 4.34382C23.0452 5.18612 20.3244 7.25112 18.6204 10.1584C16.9165 13.0657 16.4768 16.4349 17.3562 19.6411L18.1258 22.5212L17.0539 22.8201C14.1408 23.5809 12.272 26.3795 12.6842 29.3683L15.6248 49.3662H9.52369C9.05648 49.3662 8.64424 49.6651 8.47934 50.0998L0.866646 72.3529C0.152097 74.581 0.481889 76.809 1.85602 78.7109C3.23016 80.5857 5.29136 81.6182 7.62738 81.6182H8.42438V110.501C8.42438 116.017 12.959 120.5 18.538 120.5H110.907C116.486 120.5 121.021 116.017 121.021 110.501V87.0525C121.021 86.4547 120.526 85.9656 119.922 85.9656C119.317 85.9656 118.822 86.4547 118.822 87.0525V110.501C118.822 114.821 115.277 118.326 110.907 118.326H65.7257V57.0828L71.7719 74.8527C73.1735 78.9827 76.9112 81.6454 81.3084 81.6454H121.598C123.962 81.6454 125.995 80.6129 127.342 78.7381C128.771 76.8361 129.101 74.581 128.331 72.3529ZM99.1721 49.3662L103.927 22.6028L104.449 20.728L105.328 20.9725C106.07 21.1899 106.95 21.1084 107.664 20.6736C108.379 20.2389 108.901 19.6139 109.093 18.826L109.945 15.647C110.11 15.0764 109.753 14.4786 109.176 14.3156C108.599 14.1526 107.994 14.5058 107.829 15.0764L106.977 18.2554C106.867 18.7173 106.373 18.989 105.905 18.8803L105.026 18.6358L106.895 11.7343L120.554 15.3481L114.48 49.3662H99.1721ZM87.6019 49.3662V31.9768L89.7456 34.0961C89.9654 34.3135 90.2403 34.4222 90.5151 34.4222C90.8174 34.4222 91.0922 34.3135 91.2846 34.0961L100.849 24.6134L93.6206 44.2581C93.4008 44.8287 93.7031 45.4536 94.2802 45.6438C94.8574 45.8612 95.4895 45.5623 95.6818 44.9917L99.6119 34.3406L96.946 49.3662H87.6019ZM87.6019 11.1909L99.4745 22.9288L90.5151 31.8137L87.6019 28.9064V11.1909ZM91.4495 6.59902L92.4664 2.93093L121.763 10.6747L121.076 13.2016L95.6544 6.46316C95.0772 6.30014 94.4726 6.65336 94.3077 7.22395C94.1428 7.79454 94.5001 8.39231 95.0772 8.55533L104.806 11.1366L102.662 19.0434V19.0705V19.0977L101.865 22.0322L101.838 22.1137L90.0754 10.4845L91.4495 6.59902ZM61.7682 6.30014H74.1629V8.5825C74.1629 11.9517 71.3872 14.696 67.9793 14.696C64.5715 14.696 61.7957 11.9517 61.7957 8.5825L61.7682 6.30014ZM46.7077 28.9064L43.7946 31.7866L34.8352 22.9288L46.7077 11.1909V28.9064ZM19.4724 19.0705C18.7579 16.4078 19.1151 13.6363 20.5168 11.2453C21.9184 8.85421 24.1719 7.14244 26.8652 6.40882C32.4442 4.91441 38.1881 8.20211 39.6997 13.7178L39.9745 14.7775L37.2812 17.4403L20.2694 21.9507L19.4724 19.0705ZM14.8553 29.0151C14.5805 27.1131 15.7348 25.3742 17.6036 24.8851L18.7029 24.5862L21.0114 33.1179C21.1489 33.607 21.5886 33.9331 22.0833 33.9331C22.1657 33.9331 22.2756 33.9331 22.3581 33.9059C22.9352 33.7429 23.2925 33.1451 23.1276 32.5745L20.8191 24.0428L34.1756 20.5106L32.4992 22.168C32.0595 22.6028 32.0595 23.282 32.4992 23.7168L42.9976 34.1233C43.2174 34.3406 43.4923 34.4493 43.7671 34.4493C44.0694 34.4493 44.3442 34.3406 44.5366 34.1233L46.6803 32.0039V43.1169C46.6803 43.7147 47.1749 44.2037 47.7796 44.2037C48.3842 44.2037 48.8789 43.7147 48.8789 43.1169V9.42481L59.5696 6.62619V8.5825C59.5696 13.1472 63.3348 16.8697 67.9518 16.8697C72.5689 16.8697 76.334 13.1472 76.334 8.5825V6.68053L85.3758 9.37046V49.3662H17.8235L14.8553 29.0151ZM18.538 118.326C14.1683 118.326 10.623 114.821 10.623 110.501V81.6182H47.8895C52.3142 81.6182 56.0793 78.9555 57.4809 74.8527L61.9331 61.8377C62.1255 61.2671 61.8232 60.6422 61.2461 60.452C60.6689 60.2618 60.0368 60.5607 59.8444 61.1313L55.3923 74.1462C54.2929 77.3524 51.3523 79.4446 47.8895 79.4446H7.62738C5.97842 79.4446 4.60429 78.7381 3.6424 77.4339C2.6805 76.1025 2.46064 74.6081 2.98281 73.0594L10.3207 51.5399H63.5271V118.326H18.538ZM125.583 77.4339C124.649 78.7381 123.274 79.4446 121.625 79.4446H81.3359C77.9006 79.4446 74.9599 77.3524 73.8606 74.1462L66.1655 51.5399H118.932L126.243 73.0594C126.792 74.6081 126.572 76.1025 125.583 77.4339Z"/>
</mask>
<path d="M128.331 72.3529L120.746 50.0998C120.581 49.6651 120.169 49.3662 119.702 49.3662H116.734L122.917 14.7232L124.181 10.1856C124.264 9.91389 124.209 9.615 124.071 9.37046C123.934 9.12593 123.687 8.93573 123.412 8.85421L91.9442 0.539877C91.3671 0.376851 90.7624 0.730074 90.5975 1.30067L89.3334 5.91974L88.289 8.7727L87.2721 7.76737C87.1347 7.63152 86.9973 7.55 86.8324 7.49566L75.592 4.12645C75.4821 4.09928 75.3722 4.07211 75.2622 4.07211H60.6689C60.5865 4.07211 60.4766 4.07211 60.3941 4.09928L47.5047 7.52283C47.3124 7.57718 47.1475 7.68586 47.01 7.82171L41.7334 13.0114C39.8371 6.43599 32.9664 2.55053 26.2606 4.34382C23.0452 5.18612 20.3244 7.25112 18.6204 10.1584C16.9165 13.0657 16.4768 16.4349 17.3562 19.6411L18.1258 22.5212L17.0539 22.8201C14.1408 23.5809 12.272 26.3795 12.6842 29.3683L15.6248 49.3662H9.52369C9.05648 49.3662 8.64424 49.6651 8.47934 50.0998L0.866646 72.3529C0.152097 74.581 0.481889 76.809 1.85602 78.7109C3.23016 80.5857 5.29136 81.6182 7.62738 81.6182H8.42438V110.501C8.42438 116.017 12.959 120.5 18.538 120.5H110.907C116.486 120.5 121.021 116.017 121.021 110.501V87.0525C121.021 86.4547 120.526 85.9656 119.922 85.9656C119.317 85.9656 118.822 86.4547 118.822 87.0525V110.501C118.822 114.821 115.277 118.326 110.907 118.326H65.7257V57.0828L71.7719 74.8527C73.1735 78.9827 76.9112 81.6454 81.3084 81.6454H121.598C123.962 81.6454 125.995 80.6129 127.342 78.7381C128.771 76.8361 129.101 74.581 128.331 72.3529ZM99.1721 49.3662L103.927 22.6028L104.449 20.728L105.328 20.9725C106.07 21.1899 106.95 21.1084 107.664 20.6736C108.379 20.2389 108.901 19.6139 109.093 18.826L109.945 15.647C110.11 15.0764 109.753 14.4786 109.176 14.3156C108.599 14.1526 107.994 14.5058 107.829 15.0764L106.977 18.2554C106.867 18.7173 106.373 18.989 105.905 18.8803L105.026 18.6358L106.895 11.7343L120.554 15.3481L114.48 49.3662H99.1721ZM87.6019 49.3662V31.9768L89.7456 34.0961C89.9654 34.3135 90.2403 34.4222 90.5151 34.4222C90.8174 34.4222 91.0922 34.3135 91.2846 34.0961L100.849 24.6134L93.6206 44.2581C93.4008 44.8287 93.7031 45.4536 94.2802 45.6438C94.8574 45.8612 95.4895 45.5623 95.6818 44.9917L99.6119 34.3406L96.946 49.3662H87.6019ZM87.6019 11.1909L99.4745 22.9288L90.5151 31.8137L87.6019 28.9064V11.1909ZM91.4495 6.59902L92.4664 2.93093L121.763 10.6747L121.076 13.2016L95.6544 6.46316C95.0772 6.30014 94.4726 6.65336 94.3077 7.22395C94.1428 7.79454 94.5001 8.39231 95.0772 8.55533L104.806 11.1366L102.662 19.0434V19.0705V19.0977L101.865 22.0322L101.838 22.1137L90.0754 10.4845L91.4495 6.59902ZM61.7682 6.30014H74.1629V8.5825C74.1629 11.9517 71.3872 14.696 67.9793 14.696C64.5715 14.696 61.7957 11.9517 61.7957 8.5825L61.7682 6.30014ZM46.7077 28.9064L43.7946 31.7866L34.8352 22.9288L46.7077 11.1909V28.9064ZM19.4724 19.0705C18.7579 16.4078 19.1151 13.6363 20.5168 11.2453C21.9184 8.85421 24.1719 7.14244 26.8652 6.40882C32.4442 4.91441 38.1881 8.20211 39.6997 13.7178L39.9745 14.7775L37.2812 17.4403L20.2694 21.9507L19.4724 19.0705ZM14.8553 29.0151C14.5805 27.1131 15.7348 25.3742 17.6036 24.8851L18.7029 24.5862L21.0114 33.1179C21.1489 33.607 21.5886 33.9331 22.0833 33.9331C22.1657 33.9331 22.2756 33.9331 22.3581 33.9059C22.9352 33.7429 23.2925 33.1451 23.1276 32.5745L20.8191 24.0428L34.1756 20.5106L32.4992 22.168C32.0595 22.6028 32.0595 23.282 32.4992 23.7168L42.9976 34.1233C43.2174 34.3406 43.4923 34.4493 43.7671 34.4493C44.0694 34.4493 44.3442 34.3406 44.5366 34.1233L46.6803 32.0039V43.1169C46.6803 43.7147 47.1749 44.2037 47.7796 44.2037C48.3842 44.2037 48.8789 43.7147 48.8789 43.1169V9.42481L59.5696 6.62619V8.5825C59.5696 13.1472 63.3348 16.8697 67.9518 16.8697C72.5689 16.8697 76.334 13.1472 76.334 8.5825V6.68053L85.3758 9.37046V49.3662H17.8235L14.8553 29.0151ZM18.538 118.326C14.1683 118.326 10.623 114.821 10.623 110.501V81.6182H47.8895C52.3142 81.6182 56.0793 78.9555 57.4809 74.8527L61.9331 61.8377C62.1255 61.2671 61.8232 60.6422 61.2461 60.452C60.6689 60.2618 60.0368 60.5607 59.8444 61.1313L55.3923 74.1462C54.2929 77.3524 51.3523 79.4446 47.8895 79.4446H7.62738C5.97842 79.4446 4.60429 78.7381 3.6424 77.4339C2.6805 76.1025 2.46064 74.6081 2.98281 73.0594L10.3207 51.5399H63.5271V118.326H18.538ZM125.583 77.4339C124.649 78.7381 123.274 79.4446 121.625 79.4446H81.3359C77.9006 79.4446 74.9599 77.3524 73.8606 74.1462L66.1655 51.5399H118.932L126.243 73.0594C126.792 74.6081 126.572 76.1025 125.583 77.4339Z" fill="#0471B4" fill-opacity="0.27"/>
<path d="M128.331 72.3529L120.746 50.0998C120.581 49.6651 120.169 49.3662 119.702 49.3662H116.734L122.917 14.7232L124.181 10.1856C124.264 9.91389 124.209 9.615 124.071 9.37046C123.934 9.12593 123.687 8.93573 123.412 8.85421L91.9442 0.539877C91.3671 0.376851 90.7624 0.730074 90.5975 1.30067L89.3334 5.91974L88.289 8.7727L87.2721 7.76737C87.1347 7.63152 86.9973 7.55 86.8324 7.49566L75.592 4.12645C75.4821 4.09928 75.3722 4.07211 75.2622 4.07211H60.6689C60.5865 4.07211 60.4766 4.07211 60.3941 4.09928L47.5047 7.52283C47.3124 7.57718 47.1475 7.68586 47.01 7.82171L41.7334 13.0114C39.8371 6.43599 32.9664 2.55053 26.2606 4.34382C23.0452 5.18612 20.3244 7.25112 18.6204 10.1584C16.9165 13.0657 16.4768 16.4349 17.3562 19.6411L18.1258 22.5212L17.0539 22.8201C14.1408 23.5809 12.272 26.3795 12.6842 29.3683L15.6248 49.3662H9.52369C9.05648 49.3662 8.64424 49.6651 8.47934 50.0998L0.866646 72.3529C0.152097 74.581 0.481889 76.809 1.85602 78.7109C3.23016 80.5857 5.29136 81.6182 7.62738 81.6182H8.42438V110.501C8.42438 116.017 12.959 120.5 18.538 120.5H110.907C116.486 120.5 121.021 116.017 121.021 110.501V87.0525C121.021 86.4547 120.526 85.9656 119.922 85.9656C119.317 85.9656 118.822 86.4547 118.822 87.0525V110.501C118.822 114.821 115.277 118.326 110.907 118.326H65.7257V57.0828L71.7719 74.8527C73.1735 78.9827 76.9112 81.6454 81.3084 81.6454H121.598C123.962 81.6454 125.995 80.6129 127.342 78.7381C128.771 76.8361 129.101 74.581 128.331 72.3529ZM99.1721 49.3662L103.927 22.6028L104.449 20.728L105.328 20.9725C106.07 21.1899 106.95 21.1084 107.664 20.6736C108.379 20.2389 108.901 19.6139 109.093 18.826L109.945 15.647C110.11 15.0764 109.753 14.4786 109.176 14.3156C108.599 14.1526 107.994 14.5058 107.829 15.0764L106.977 18.2554C106.867 18.7173 106.373 18.989 105.905 18.8803L105.026 18.6358L106.895 11.7343L120.554 15.3481L114.48 49.3662H99.1721ZM87.6019 49.3662V31.9768L89.7456 34.0961C89.9654 34.3135 90.2403 34.4222 90.5151 34.4222C90.8174 34.4222 91.0922 34.3135 91.2846 34.0961L100.849 24.6134L93.6206 44.2581C93.4008 44.8287 93.7031 45.4536 94.2802 45.6438C94.8574 45.8612 95.4895 45.5623 95.6818 44.9917L99.6119 34.3406L96.946 49.3662H87.6019ZM87.6019 11.1909L99.4745 22.9288L90.5151 31.8137L87.6019 28.9064V11.1909ZM91.4495 6.59902L92.4664 2.93093L121.763 10.6747L121.076 13.2016L95.6544 6.46316C95.0772 6.30014 94.4726 6.65336 94.3077 7.22395C94.1428 7.79454 94.5001 8.39231 95.0772 8.55533L104.806 11.1366L102.662 19.0434V19.0705V19.0977L101.865 22.0322L101.838 22.1137L90.0754 10.4845L91.4495 6.59902ZM61.7682 6.30014H74.1629V8.5825C74.1629 11.9517 71.3872 14.696 67.9793 14.696C64.5715 14.696 61.7957 11.9517 61.7957 8.5825L61.7682 6.30014ZM46.7077 28.9064L43.7946 31.7866L34.8352 22.9288L46.7077 11.1909V28.9064ZM19.4724 19.0705C18.7579 16.4078 19.1151 13.6363 20.5168 11.2453C21.9184 8.85421 24.1719 7.14244 26.8652 6.40882C32.4442 4.91441 38.1881 8.20211 39.6997 13.7178L39.9745 14.7775L37.2812 17.4403L20.2694 21.9507L19.4724 19.0705ZM14.8553 29.0151C14.5805 27.1131 15.7348 25.3742 17.6036 24.8851L18.7029 24.5862L21.0114 33.1179C21.1489 33.607 21.5886 33.9331 22.0833 33.9331C22.1657 33.9331 22.2756 33.9331 22.3581 33.9059C22.9352 33.7429 23.2925 33.1451 23.1276 32.5745L20.8191 24.0428L34.1756 20.5106L32.4992 22.168C32.0595 22.6028 32.0595 23.282 32.4992 23.7168L42.9976 34.1233C43.2174 34.3406 43.4923 34.4493 43.7671 34.4493C44.0694 34.4493 44.3442 34.3406 44.5366 34.1233L46.6803 32.0039V43.1169C46.6803 43.7147 47.1749 44.2037 47.7796 44.2037C48.3842 44.2037 48.8789 43.7147 48.8789 43.1169V9.42481L59.5696 6.62619V8.5825C59.5696 13.1472 63.3348 16.8697 67.9518 16.8697C72.5689 16.8697 76.334 13.1472 76.334 8.5825V6.68053L85.3758 9.37046V49.3662H17.8235L14.8553 29.0151ZM18.538 118.326C14.1683 118.326 10.623 114.821 10.623 110.501V81.6182H47.8895C52.3142 81.6182 56.0793 78.9555 57.4809 74.8527L61.9331 61.8377C62.1255 61.2671 61.8232 60.6422 61.2461 60.452C60.6689 60.2618 60.0368 60.5607 59.8444 61.1313L55.3923 74.1462C54.2929 77.3524 51.3523 79.4446 47.8895 79.4446H7.62738C5.97842 79.4446 4.60429 78.7381 3.6424 77.4339C2.6805 76.1025 2.46064 74.6081 2.98281 73.0594L10.3207 51.5399H63.5271V118.326H18.538ZM125.583 77.4339C124.649 78.7381 123.274 79.4446 121.625 79.4446H81.3359C77.9006 79.4446 74.9599 77.3524 73.8606 74.1462L66.1655 51.5399H118.932L126.243 73.0594C126.792 74.6081 126.572 76.1025 125.583 77.4339Z" stroke="#0471B4" stroke-opacity="0.27" mask="url(#path-1-outside-1_1905_1712)"/>
</svg>
