<svg width="110" height="122" viewBox="0 0 110 122" fill="none" xmlns="http://www.w3.org/2000/svg">
<path d="M42.7415 73.036C53.708 73.1975 65.3191 71.9915 65.3191 71.9915C65.3191 43.3145 66.0596 30.337 66.0596 30.337L70.5057 34.4223L83.4805 24.9729L73.4726 11.914C69.3025 7.18853 66.5224 6.30831 66.5224 6.30831L52.9923 1.5C48.4536 4.30497 42.7398 4.09778 42.7398 4.09778H42.2423C42.2423 4.09778 36.5301 4.30497 31.9881 1.5L18.4581 6.30831C18.4581 6.30831 15.678 7.18996 11.5095 11.914L1.5 24.9729L14.4731 34.4223L18.9192 30.337C18.9192 30.337 19.6613 43.3159 19.6613 71.9915C19.6613 71.9915 31.2741 73.1989 42.2407 73.036H42.7415Z" stroke="#0471B4" stroke-opacity="0.27" stroke-width="3" stroke-miterlimit="10" stroke-linecap="round" stroke-linejoin="round"/>
<path d="M83.8601 75.1865C72.5593 75.1865 63.3652 84.4995 63.3652 95.9464C63.3652 107.393 72.5593 116.706 83.8601 116.706C95.1608 116.706 104.355 107.393 104.355 95.9464C104.355 84.4995 95.1608 75.1865 83.8601 75.1865ZM94.5263 88.9888L81.2834 104.958C81.1382 105.133 80.9574 105.275 80.7534 105.373C80.5494 105.471 80.3269 105.524 80.1011 105.528H80.0744C79.8535 105.528 79.635 105.481 79.4332 105.389C79.2313 105.298 79.0507 105.165 78.9029 104.999L73.2274 98.6112C73.0833 98.4563 72.9711 98.2739 72.8976 98.0745C72.8241 97.8751 72.7907 97.6629 72.7993 97.4502C72.8079 97.2376 72.8584 97.0288 72.9478 96.8362C73.0372 96.6436 73.1637 96.4711 73.3199 96.3287C73.4761 96.1863 73.6588 96.077 73.8573 96.0072C74.0557 95.9374 74.266 95.9084 74.4757 95.9221C74.6854 95.9358 74.8902 95.9917 75.0782 96.0867C75.2663 96.1817 75.4336 96.3139 75.5705 96.4753L80.0331 101.498L92.1122 86.9348C92.3832 86.6175 92.7665 86.4209 93.1794 86.3876C93.5922 86.3543 94.0015 86.4869 94.3186 86.7567C94.6357 87.0265 94.8353 87.412 94.8742 87.8296C94.913 88.2473 94.7881 88.6637 94.5263 88.9888Z" fill="#0471B4" fill-opacity="0.27"/>
</svg>
