<svg width="139" height="120" viewBox="0 0 139 120" fill="none" xmlns="http://www.w3.org/2000/svg">
<path d="M131.623 20.6897H128.99C127.794 15.5172 123.247 11.5862 117.264 10.5517V2.06897C117.264 0.827586 116.306 0 114.871 0H105.298C103.862 0 102.905 0.827586 102.905 2.06897V10.3448H35.8971V2.06897C35.8971 0.827586 34.9398 0 33.5039 0H23.9314C22.4955 0 21.5382 0.827586 21.5382 2.06897V10.3448H16.752C12.6836 10.3448 9.57255 13.0345 9.57255 16.5517V26.8966H2.39314C0.957255 26.8966 0 27.7241 0 28.9655V49.6552C0 50.8966 0.957255 51.7241 2.39314 51.7241H9.57255V62.069C9.57255 65.5862 12.6836 68.2759 16.752 68.2759V74.4828C16.752 75.7241 17.7092 76.5517 19.1451 76.5517H21.5382V82.7586C21.5382 84 22.4955 84.8276 23.9314 84.8276H31.1108V95.1724C31.1108 96.4138 32.068 97.2414 33.5039 97.2414C34.9398 97.2414 35.8971 96.4138 35.8971 95.1724V84.8276H43.0765C44.5124 84.8276 45.4696 84 45.4696 82.7586V76.5517H47.8628C49.2986 76.5517 50.2559 75.7241 50.2559 74.4828V68.2759H70.5976C80.4094 68.2759 88.5461 75.3103 88.5461 83.7931C88.5461 92.2759 80.4094 99.3103 70.5976 99.3103H16.752C12.6836 99.3103 9.57255 102 9.57255 105.517V117.931C9.57255 119.172 10.5298 120 11.9657 120H126.836C128.272 120 129.229 119.172 129.229 117.931V111.931C129.229 108.621 127.794 105.31 124.922 103.034C123.007 101.379 122.05 99.3103 122.05 97.0345V70.5517C122.05 68.2759 123.007 66.2069 124.922 64.5517C127.076 62.6897 128.512 60.4138 128.99 57.931H131.623C135.691 57.931 138.802 55.2414 138.802 51.7241V26.8966C138.802 23.3793 135.691 20.6897 131.623 20.6897ZM107.691 4.13793H112.477V10.3448H107.691V4.13793ZM26.3245 4.13793H31.1108V10.3448H26.3245V4.13793ZM4.78628 47.5862V31.0345H9.57255V47.5862H4.78628ZM40.6833 80.6897H26.3245V76.5517H40.6833V80.6897ZM45.4696 72.4138H43.0765H23.9314H21.5382V68.2759H45.4696V72.4138ZM121.571 61.6552C118.7 64.1379 117.264 67.2414 117.264 70.5517V97.0345C117.264 100.345 118.7 103.655 121.571 105.931C123.486 107.586 124.443 109.655 124.443 111.931V115.862H14.3588V105.517C14.3588 104.276 15.3161 103.448 16.752 103.448H70.5976C83.0419 103.448 93.3324 94.5517 93.3324 83.7931C93.3324 73.0345 83.0419 64.1379 70.5976 64.1379H47.8628H19.1451H16.752C15.3161 64.1379 14.3588 63.3103 14.3588 62.069V49.6552V28.9655V16.5517C14.3588 15.3103 15.3161 14.4828 16.752 14.4828H23.9314H33.5039H105.298H114.631C120.136 14.4828 124.443 18.2069 124.443 22.9655V55.6552C124.443 57.931 123.486 60 121.571 61.6552ZM134.016 51.7241C134.016 52.9655 133.058 53.7931 131.623 53.7931H129.229V24.8276H131.623C133.058 24.8276 134.016 25.6552 134.016 26.8966V51.7241Z" fill="#0471B4" fill-opacity="0.27"/>
<path d="M114.87 20.6895H86.1526C84.7167 20.6895 83.7595 21.517 83.7595 22.7584C83.7595 23.9998 84.7167 24.8274 86.1526 24.8274H114.87C116.306 24.8274 117.263 23.9998 117.263 22.7584C117.263 21.517 116.306 20.6895 114.87 20.6895Z" fill="#0471B4" fill-opacity="0.27"/>
<path d="M114.87 28.9648H86.1526C84.7167 28.9648 83.7595 29.7924 83.7595 31.0338C83.7595 32.2752 84.7167 33.1028 86.1526 33.1028H114.87C116.306 33.1028 117.263 32.2752 117.263 31.0338C117.263 29.7924 116.306 28.9648 114.87 28.9648Z" fill="#0471B4" fill-opacity="0.27"/>
<path d="M114.87 37.2412H86.1526C84.7167 37.2412 83.7595 38.0688 83.7595 39.3102C83.7595 40.5516 84.7167 41.3791 86.1526 41.3791H114.87C116.306 41.3791 117.263 40.5516 117.263 39.3102C117.263 38.0688 116.306 37.2412 114.87 37.2412Z" fill="#0471B4" fill-opacity="0.27"/>
<path d="M35.8968 20.6895C27.9994 20.6895 21.538 26.2757 21.538 33.1032C21.538 39.9308 27.9994 45.517 35.8968 45.517C43.7941 45.517 50.2556 39.9308 50.2556 33.1032C50.2556 26.2757 43.7941 20.6895 35.8968 20.6895ZM35.8968 41.3791C30.6319 41.3791 26.3242 37.655 26.3242 33.1032C26.3242 28.5515 30.6319 24.8274 35.8968 24.8274C41.1617 24.8274 45.4693 28.5515 45.4693 33.1032C45.4693 37.655 41.1617 41.3791 35.8968 41.3791Z" fill="#0471B4" fill-opacity="0.27"/>
</svg>
